<mxfile host="app.diagrams.net" agent="Mozilla/5.0 (Macintosh; Intel Mac OS X 10_15_7) AppleWebKit/537.36 (KHTML, like Gecko) Chrome/130.0.0.0 Safari/537.36" version="24.8.0">
  <diagram name="Page-1" id="kELTAzKA0Sh0ItjVnAwz">
    <mxGraphModel dx="1781" dy="605" grid="1" gridSize="10" guides="1" tooltips="1" connect="1" arrows="1" fold="1" page="1" pageScale="1" pageWidth="827" pageHeight="1169" math="0" shadow="0">
      <root>
        <mxCell id="0" />
        <mxCell id="1" parent="0" />
        <mxCell id="ymCbIGoKX9vtXqLldoIA-1" value="" style="rounded=0;whiteSpace=wrap;html=1;" parent="1" vertex="1">
          <mxGeometry x="360" y="720" width="400" height="230" as="geometry" />
        </mxCell>
        <mxCell id="ymCbIGoKX9vtXqLldoIA-2" value="Text" style="text;html=1;align=center;verticalAlign=middle;whiteSpace=wrap;rounded=0;" parent="1" vertex="1">
          <mxGeometry x="440" y="750" width="50" height="30" as="geometry" />
        </mxCell>
        <mxCell id="ymCbIGoKX9vtXqLldoIA-3" value="" style="rounded=0;whiteSpace=wrap;html=1;" parent="1" vertex="1">
          <mxGeometry x="580" y="750" width="120" height="60" as="geometry" />
        </mxCell>
        <mxCell id="ymCbIGoKX9vtXqLldoIA-4" value="Text" style="text;html=1;align=center;verticalAlign=middle;whiteSpace=wrap;rounded=0;" parent="1" vertex="1">
          <mxGeometry x="610" y="765" width="60" height="30" as="geometry" />
        </mxCell>
        <mxCell id="ymCbIGoKX9vtXqLldoIA-5" value="" style="rounded=0;whiteSpace=wrap;html=1;" parent="1" vertex="1">
          <mxGeometry x="590" y="860" width="120" height="60" as="geometry" />
        </mxCell>
        <mxCell id="ymCbIGoKX9vtXqLldoIA-7" value="" style="rounded=1;whiteSpace=wrap;html=1;" parent="1" vertex="1">
          <mxGeometry x="414" y="830" width="120" height="60" as="geometry" />
        </mxCell>
        <mxCell id="ymCbIGoKX9vtXqLldoIA-8" value="Text" style="text;html=1;align=center;verticalAlign=middle;whiteSpace=wrap;rounded=0;" parent="1" vertex="1">
          <mxGeometry x="620" y="880" width="60" height="30" as="geometry" />
        </mxCell>
        <mxCell id="ymCbIGoKX9vtXqLldoIA-10" value="" style="rounded=0;whiteSpace=wrap;html=1;" parent="1" vertex="1">
          <mxGeometry x="414" y="900" width="120" height="40" as="geometry" />
        </mxCell>
        <mxCell id="ymCbIGoKX9vtXqLldoIA-15" value="Text" style="text;html=1;align=center;verticalAlign=middle;whiteSpace=wrap;rounded=0;" parent="1" vertex="1">
          <mxGeometry x="444" y="910" width="60" height="30" as="geometry" />
        </mxCell>
        <mxCell id="ymCbIGoKX9vtXqLldoIA-16" value="" style="endArrow=none;html=1;rounded=0;" parent="1" edge="1">
          <mxGeometry width="50" height="50" relative="1" as="geometry">
            <mxPoint x="350" y="1090" as="sourcePoint" />
            <mxPoint x="350" y="630" as="targetPoint" />
          </mxGeometry>
        </mxCell>
        <mxCell id="ymCbIGoKX9vtXqLldoIA-18" value="Text" style="text;html=1;align=center;verticalAlign=middle;whiteSpace=wrap;rounded=0;" parent="1" vertex="1">
          <mxGeometry x="630" y="820" width="60" height="30" as="geometry" />
        </mxCell>
        <mxCell id="ymCbIGoKX9vtXqLldoIA-19" value="" style="rounded=0;whiteSpace=wrap;html=1;" parent="1" vertex="1">
          <mxGeometry x="-90" y="1140" width="270" height="140" as="geometry" />
        </mxCell>
        <mxCell id="ymCbIGoKX9vtXqLldoIA-21" value="Text" style="text;html=1;align=center;verticalAlign=middle;whiteSpace=wrap;rounded=0;" parent="1" vertex="1">
          <mxGeometry x="100" y="1160" width="60" height="30" as="geometry" />
        </mxCell>
        <mxCell id="ymCbIGoKX9vtXqLldoIA-22" value="Text" style="text;html=1;align=center;verticalAlign=middle;whiteSpace=wrap;rounded=0;" parent="1" vertex="1">
          <mxGeometry x="60" y="1230" width="60" height="30" as="geometry" />
        </mxCell>
        <mxCell id="ymCbIGoKX9vtXqLldoIA-23" value="" style="endArrow=none;html=1;rounded=0;" parent="1" edge="1">
          <mxGeometry width="50" height="50" relative="1" as="geometry">
            <mxPoint x="-130" y="1390" as="sourcePoint" />
            <mxPoint x="-130" y="930" as="targetPoint" />
          </mxGeometry>
        </mxCell>
        <mxCell id="ymCbIGoKX9vtXqLldoIA-24" value="" style="ellipse;whiteSpace=wrap;html=1;aspect=fixed;" parent="1" vertex="1">
          <mxGeometry x="-70" y="1169" width="50" height="50" as="geometry" />
        </mxCell>
        <mxCell id="GFVOSrgVQc9Ezyy7HkAt-1" value="make viewport 1024 x 1280" style="rounded=0;whiteSpace=wrap;html=1;" vertex="1" parent="1">
          <mxGeometry x="90" y="1470" width="130" height="60" as="geometry" />
        </mxCell>
        <mxCell id="GFVOSrgVQc9Ezyy7HkAt-2" value="DOM captured&amp;nbsp;&lt;span style=&quot;color: rgb(79, 193, 255); background-color: rgb(31, 31, 31); font-family: Menlo, Monaco, &amp;quot;Courier New&amp;quot;, monospace; white-space: pre;&quot;&gt;childElementsAt1024_1280&lt;/span&gt;" style="rounded=0;whiteSpace=wrap;html=1;" vertex="1" parent="1">
          <mxGeometry x="25" y="1590" width="260" height="60" as="geometry" />
        </mxCell>
        <mxCell id="GFVOSrgVQc9Ezyy7HkAt-3" value="DOM captured&amp;nbsp;&lt;span style=&quot;color: rgb(79, 193, 255); background-color: rgb(31, 31, 31); font-family: Menlo, Monaco, &amp;quot;Courier New&amp;quot;, monospace; white-space: pre;&quot;&gt;visibleElementAt1024_1280&lt;/span&gt;" style="rounded=0;whiteSpace=wrap;html=1;" vertex="1" parent="1">
          <mxGeometry x="25" y="1724" width="260" height="60" as="geometry" />
        </mxCell>
        <mxCell id="GFVOSrgVQc9Ezyy7HkAt-4" value="make viewport 320 x 256" style="rounded=0;whiteSpace=wrap;html=1;" vertex="1" parent="1">
          <mxGeometry x="90" y="1850" width="130" height="60" as="geometry" />
        </mxCell>
        <mxCell id="GFVOSrgVQc9Ezyy7HkAt-5" value="&lt;div style=&quot;color: rgb(204, 204, 204); background-color: rgb(31, 31, 31); font-family: Menlo, Monaco, &amp;quot;Courier New&amp;quot;, monospace; line-height: 18px; white-space: pre;&quot;&gt;&lt;span style=&quot;color: #dcdcaa;&quot;&gt;checkReflow(node))&lt;/span&gt;&lt;/div&gt;" style="rhombus;whiteSpace=wrap;html=1;" vertex="1" parent="1">
          <mxGeometry x="86.25" y="1990" width="137.5" height="150" as="geometry" />
        </mxCell>
        <mxCell id="GFVOSrgVQc9Ezyy7HkAt-6" value="&lt;div style=&quot;color: rgb(204, 204, 204); background-color: rgb(31, 31, 31); font-family: Menlo, Monaco, &amp;quot;Courier New&amp;quot;, monospace; line-height: 18px; white-space: pre;&quot;&gt;&lt;span style=&quot;color: #4fc1ff;&quot;&gt;listOfViolations&lt;/span&gt;&lt;/div&gt;" style="rounded=0;whiteSpace=wrap;html=1;" vertex="1" parent="1">
          <mxGeometry x="95" y="2220" width="120" height="60" as="geometry" />
        </mxCell>
        <mxCell id="GFVOSrgVQc9Ezyy7HkAt-7" value="No nothing" style="rounded=0;whiteSpace=wrap;html=1;" vertex="1" parent="1">
          <mxGeometry x="340" y="2035" width="120" height="60" as="geometry" />
        </mxCell>
        <mxCell id="GFVOSrgVQc9Ezyy7HkAt-8" value="" style="endArrow=classic;html=1;rounded=0;exitX=0.5;exitY=1;exitDx=0;exitDy=0;entryX=0.5;entryY=0;entryDx=0;entryDy=0;" edge="1" parent="1" source="GFVOSrgVQc9Ezyy7HkAt-5" target="GFVOSrgVQc9Ezyy7HkAt-6">
          <mxGeometry width="50" height="50" relative="1" as="geometry">
            <mxPoint x="110" y="2150" as="sourcePoint" />
            <mxPoint x="160" y="2100" as="targetPoint" />
          </mxGeometry>
        </mxCell>
        <mxCell id="GFVOSrgVQc9Ezyy7HkAt-9" value="" style="endArrow=classic;html=1;rounded=0;exitX=1;exitY=0.5;exitDx=0;exitDy=0;entryX=0;entryY=0.5;entryDx=0;entryDy=0;" edge="1" parent="1" source="GFVOSrgVQc9Ezyy7HkAt-5" target="GFVOSrgVQc9Ezyy7HkAt-7">
          <mxGeometry width="50" height="50" relative="1" as="geometry">
            <mxPoint x="110" y="2150" as="sourcePoint" />
            <mxPoint x="160" y="2100" as="targetPoint" />
          </mxGeometry>
        </mxCell>
        <mxCell id="GFVOSrgVQc9Ezyy7HkAt-10" value="No" style="text;html=1;align=center;verticalAlign=middle;whiteSpace=wrap;rounded=0;" vertex="1" parent="1">
          <mxGeometry x="250" y="2030" width="60" height="30" as="geometry" />
        </mxCell>
        <mxCell id="GFVOSrgVQc9Ezyy7HkAt-11" value="Yes" style="text;html=1;align=center;verticalAlign=middle;whiteSpace=wrap;rounded=0;" vertex="1" parent="1">
          <mxGeometry x="86.25" y="2160" width="60" height="30" as="geometry" />
        </mxCell>
        <mxCell id="GFVOSrgVQc9Ezyy7HkAt-12" value="" style="endArrow=classic;html=1;rounded=0;exitX=0.5;exitY=1;exitDx=0;exitDy=0;entryX=0.5;entryY=0;entryDx=0;entryDy=0;" edge="1" parent="1" source="GFVOSrgVQc9Ezyy7HkAt-4" target="GFVOSrgVQc9Ezyy7HkAt-5">
          <mxGeometry width="50" height="50" relative="1" as="geometry">
            <mxPoint y="2040" as="sourcePoint" />
            <mxPoint x="50" y="1990" as="targetPoint" />
          </mxGeometry>
        </mxCell>
        <mxCell id="GFVOSrgVQc9Ezyy7HkAt-14" value="" style="endArrow=classic;html=1;rounded=0;exitX=0.5;exitY=1;exitDx=0;exitDy=0;" edge="1" parent="1" source="GFVOSrgVQc9Ezyy7HkAt-3" target="GFVOSrgVQc9Ezyy7HkAt-4">
          <mxGeometry width="50" height="50" relative="1" as="geometry">
            <mxPoint x="-70" y="1960" as="sourcePoint" />
            <mxPoint x="-20" y="1910" as="targetPoint" />
          </mxGeometry>
        </mxCell>
        <mxCell id="GFVOSrgVQc9Ezyy7HkAt-15" value="" style="endArrow=classic;html=1;rounded=0;exitX=0.5;exitY=1;exitDx=0;exitDy=0;entryX=0.5;entryY=0;entryDx=0;entryDy=0;" edge="1" parent="1" source="GFVOSrgVQc9Ezyy7HkAt-2" target="GFVOSrgVQc9Ezyy7HkAt-3">
          <mxGeometry width="50" height="50" relative="1" as="geometry">
            <mxPoint x="-200" y="1700" as="sourcePoint" />
            <mxPoint x="-150" y="1650" as="targetPoint" />
          </mxGeometry>
        </mxCell>
        <mxCell id="GFVOSrgVQc9Ezyy7HkAt-16" value="" style="endArrow=classic;html=1;rounded=0;exitX=0.5;exitY=1;exitDx=0;exitDy=0;entryX=0.5;entryY=0;entryDx=0;entryDy=0;" edge="1" parent="1" source="GFVOSrgVQc9Ezyy7HkAt-1" target="GFVOSrgVQc9Ezyy7HkAt-2">
          <mxGeometry width="50" height="50" relative="1" as="geometry">
            <mxPoint x="-190" y="1660" as="sourcePoint" />
            <mxPoint x="-140" y="1610" as="targetPoint" />
          </mxGeometry>
        </mxCell>
      </root>
    </mxGraphModel>
  </diagram>
</mxfile>
